# xmcd CD database file
#
# Track frame offsets:
#	150
#	4050
#	24607
#	46027
#	66817
#	86777
#	92267
#	106765
#	129022
#	147382
#	168107
#	184727
#	205607
#	232920
#
# Disc length: 3383 seconds
#
# Revision: 2
# Processed by: cddbd v1.5.2PL0 Copyright (c) Steve Scherf et al.
# Submitted via: jetAudio 5
#
DISCID=9f0d350e
DTITLE=Various Artist - P. Diddy and Bad Boy Records Presents... We Invented The
DTITLE=Remix
DYEAR=2002
DGENRE=Hip Hop
TTITLE0=P.Diddy - Bad Boys - Intro
TTITLE1=G Dep - Keith Murray - Ghostface Killah - Craig Mack - Special 
TTITLE1=Delivery (Remix)
TTITLE2=P.Diddy - Ginuwine - Loon - Mario Winans - Tammy Ruggeri - I Ne
TTITLE2=ed A Girl (Part 2) (Remix)
TTITLE3=P.Diddy - M.O.P. - Busta Rhymes - Bad Boy For Life (Remix)
TTITLE4=P.Diddy - Usher - Loon - I Need A Girl (Part 1)
TTITLE5=P.Diddy - Bad Boys - The Remix Phenomenon Interlude
TTITLE6=Ashanti - Notorious B.I.G. - Unfoolish (Remix)
TTITLE7=112 - Beanie Sigel - 112 - Ludacris - Dance With Me (Remix) - P
TTITLE7=eaches and Cream (Remix)
TTITLE8=Mary J. Blige - P.Diddy - No More Drama (Remix)
TTITLE9=P.Diddy - Cheri Dennis - So Complete (Remix)
TTITLE10=Notorious B.I.G. - Lil Kim - P.Diddy - Notorious BIG (Remix)
TTITLE11=P.Diddy - Missy Elliot - G Dep - Snoop Dogg - That's Crazy (Re
TTITLE11=mix)
TTITLE12=Carl Thomas - Notorious B.I.G. - Woke Up In The Morning (Remix
TTITLE12=)
TTITLE13=G Dep - Faith Evans - You Gets No Love (Remix)
EXTD=
EXTT0=
EXTT1=
EXTT2=
EXTT3=
EXTT4=
EXTT5=
EXTT6=
EXTT7=
EXTT8=
EXTT9=
EXTT10=
EXTT11=
EXTT12=
EXTT13=
PLAYORDER=
